HIERARCHY
ROOT pelvis
{
  OFFSET 0 100 0
  CHANNELS 6 Xposition Yposition Zposition Zrotation Xrotation Yrotation
  JOINT pelvis_right_femur
  {
    OFFSET -10.78128 -3.44521 -0.5502486
    CHANNELS 3 Zrotation Xrotation Yrotation
    JOINT right_femur_tibia
    {
      OFFSET -0.8047443 -44.0398 -0.1307829
      CHANNELS 3 Zrotation Xrotation Yrotation
      JOINT right_tibia_foot
      {
        OFFSET 3.006224 -47.83518 -5
        CHANNELS 3 Zrotation Xrotation Yrotation
        End Site
        {
          OFFSET 0 -5 15
        }
      }
    }
  }
  JOINT pelvis_left_femur
  {
    OFFSET 10.78128 -3.44521 -0.5502486
    CHANNELS 3 Zrotation Xrotation Yrotation
    JOINT left_femur_tibia
    {
      OFFSET 0.8047443 -44.0398 -0.1307829
      CHANNELS 3 Zrotation Xrotation Yrotation
      JOINT left_tibia_foot
      {
        OFFSET -4.370144 -48.10324 -4.275266
        CHANNELS 3 Zrotation Xrotation Yrotation
        End Site
        {
          OFFSET 0 -5 15
        }
      }
    }
  }
  JOINT pelvis_spine1
  {
    OFFSET 0 6.468898 -3.129235
    CHANNELS 3 Zrotation Xrotation Yrotation
    JOINT spine1
    {
      OFFSET 0 23.15396 4.99043
      CHANNELS 3 Zrotation Xrotation Yrotation
      JOINT spine2
      {
        OFFSET 0 20.79997 -5.064912
        CHANNELS 3 Zrotation Xrotation Yrotation
        JOINT neck
        {
          OFFSET 0 14.38658 9.616178
          CHANNELS 3 Zrotation Xrotation Yrotation
          End Site
          {
            OFFSET 0 20 0
          }
        }
      }
      JOINT right_manubrium
      {
        OFFSET -5.722621 16.35077 3.967754
        CHANNELS 3 Zrotation Xrotation Yrotation
        JOINT right_clavicle
        {
          OFFSET -13.16364 1.694482 -4.693211
          CHANNELS 3 Zrotation Xrotation Yrotation
          JOINT right_humerus
          {
            OFFSET -28.5034 -0.3100689 -2.792744
            CHANNELS 3 Zrotation Xrotation Yrotation
            JOINT right_radius
            {
              OFFSET -25.15693 0.02248979 -1.271978
              CHANNELS 3 Zrotation Xrotation Yrotation
              End Site
              {
                OFFSET -15 0 0
              }
            }
          }
        }
      }
      JOINT left_manubrium
      {
        OFFSET 5.722621 16.35077 3.967754
        CHANNELS 3 Zrotation Xrotation Yrotation
        JOINT left_clavicle
        {
          OFFSET 13.16364 1.694482 -4.693211
          CHANNELS 3 Zrotation Xrotation Yrotation
          JOINT left_humerus
          {
            OFFSET 29.39168 -1.063119 -2.237045
            CHANNELS 3 Zrotation Xrotation Yrotation
            JOINT left_radius
            {
              OFFSET 24.59957 -0.9528479 0.9047498
              CHANNELS 3 Zrotation Xrotation Yrotation
              End Site
              {
                OFFSET 15 -0 -0
              }
            }
          }
        }
      }
    }
  }
}
MOTION
Frames: 19
Frame Time: 0.0416666666667
0 103.5113 0 2.593024 -1.794164 0.1603624 1.156118 -11.85569 7.665111 -0 36.38368 -0 -4.135467 -18.85741 -2.802313 -8.094139 11.36777 -23.99647 -0 4.161483 -0 8.1576 -15.85503 26.30637 -2.859815 -4.3128 5.447097 2.605136 10.10423 -7.859854 2.03639 20.95515 6.441946 3.024203 -26.56979 10.42799 6.225873 -20.73389 11.30574 86.0168 34.80728 -20.48472 -0 0 17.67486 -5.134731 7.338565 2.433112 6.881731 -20.77274 -1.425635 -95.76892 25.9794 24.53628 0 0 -16.1483 10.93839 17.2943 2.581625
0.2638542 103.409 1.27199 1.909857 -1.167135 0.1561037 2.08325 -13.51105 8.405004 -0 36.64834 -0 -4.168292 -18.28821 -3.11248 -7.609356 11.11237 -24.10773 -0 4.411228 -0 6.413925 -17.20459 26.06075 -2.787063 -4.236295 5.38899 2.631538 10.08634 -7.888691 1.978497 20.95675 6.472677 3.043254 -26.53027 10.35576 6.242343 -20.57476 11.32123 86.06932 34.73755 -20.5779 -0 0 17.46244 -5.21411 7.404479 2.503426 6.857048 -20.81724 -1.403307 -95.72792 26.00259 24.43689 0 0 -16.10522 10.72434 17.25962 2.73696
0.5292035 103.1318 3.042656 0.9582705 -0.2868339 0.1960384 3.369969 -18.72274 7.037387 -0 32.09974 -0 -5.443686 -14.49793 -2.802377 -6.96602 11.6738 -22.45099 -0 4.853198 -0 4.947651 -19.76106 24.41942 -2.335863 -3.498549 5.136231 2.831158 9.97732 -8.077569 1.657379 20.63412 6.807688 3.24886 -26.67662 10.08301 6.098382 -19.89115 11.39949 86.64879 35.23579 -21.10942 -0 0 15.98053 -5.446773 7.925965 3.038151 6.811831 -21.1324 -1.379907 -94.49417 25.55272 23.22346 0 0 -17.97568 10.68583 15.99758 2.796748
0.7948302 102.7415 5.081043 0.3635659 0.6491026 0.2899331 4.316391 -22.2953 6.951241 -0 29.31524 -0 -5.715069 -12.5706 -2.829083 -6.615183 11.87019 -21.59442 -0 5.006865 -0 4.175451 -21.34172 23.59822 -2.104419 -3.15207 5.039686 2.909091 9.923895 -8.19254 1.504593 20.44397 6.981125 3.375139 -26.75505 9.940679 5.99882 -19.6013 11.42383 87.04309 35.47063 -21.53691 -0 0 15.29523 -5.499519 8.122742 3.234716 6.82318 -21.34654 -1.431923 -93.92518 25.54073 22.70043 0 0 -19.22639 10.48739 15.32818 3.150373
1.059261 102.1721 7.510783 0.02054825 1.535318 0.4711267 4.895211 -25.74064 6.314659 -0 25.34899 -0 -5.932198 -10.42695 -2.578054 -6.460914 12.33776 -20.48451 -0 5.232159 -0 3.961922 -22.55937 22.60923 -1.884702 -2.830034 4.944326 2.977604 9.889333 -8.315169 1.359514 20.25149 7.146169 3.500855 -26.80276 9.791846 5.901752 -19.3294 11.45074 87.45726 35.68932 -21.99218 -0 0 14.63233 -5.617813 8.355271 3.43994 6.844973 -21.58035 -1.502214 -93.33935 25.51261 22.15405 0 0 -20.48859 10.27897 14.66119 3.522762
1.320334 101.4428 10.38297 -0.2599978 2.461701 0.757392 5.397773 -28.9599 5.735093 -0 21.30401 -0 -6.016947 -8.332932 -2.263102 -6.355202 12.89771 -19.41777 -0 5.74048 -0 3.803785 -23.4706 21.56596 -1.703861 -2.590446 4.875575 3.018011 9.869452 -8.425425 1.24539 20.08531 7.281864 3.614222 -26.82437 9.663802 5.820098 -19.12999 11.4687 87.84071 35.85307 -22.43884 -0 0 14.1261 -5.730027 8.547945 3.586754 6.880954 -21.80311 -1.589306 -92.88655 25.57313 21.74337 0 0 -21.61268 10.01744 14.12819 3.974318
1.574014 100.5948 13.76821 -0.5313264 3.283642 1.162474 5.845105 -31.74156 5.129837 -0 17.56924 -0 -6.13339 -6.155089 -1.850071 -6.233351 13.57253 -18.33791 -0 6.819904 -0 3.555179 -23.89733 20.36435 -1.537869 -2.380655 4.807244 3.046581 9.865357 -8.531442 1.139307 19.9379 7.401681 3.719227 -26.80622 9.529348 5.753783 -18.9396 11.48982 88.20287 35.97946 -22.86539 -0 0 13.66158 -5.909935 8.768257 3.743466 6.914726 -22.02323 -1.677829 -92.46822 25.62253 21.35193 0 0 -22.60506 9.72815 13.65467 4.433023
1.818718 99.71543 17.73855 -0.8882234 3.960569 1.690266 6.386017 -33.96316 4.649305 -0 14.62764 -0 -6.367884 -3.933566 -1.37853 -6.012495 14.2932 -17.24987 -0 8.77551 -0 3.031267 -23.68159 18.94143 -1.384407 -2.195904 4.739775 3.06188 9.876468 -8.629619 1.038239 19.81694 7.50356 3.814427 -26.74136 9.3821 5.706968 -18.75056 11.51533 88.53159 36.06006 -23.25753 -0 0 13.2395 -6.16386 9.014809 3.914919 6.938295 -22.23471 -1.763222 -92.10322 25.67317 20.99825 0 0 -23.42237 9.382987 13.25326 4.921098
2.056965 98.92766 22.34963 -1.393726 4.397074 2.317564 7.120576 -35.32612 4.397702 -0 12.94976 -0 -6.800325 -1.861654 -0.8987438 -5.624632 14.92854 -16.13477 -0 11.96185 -0 2.065389 -22.5903 17.23395 -1.239948 -2.020176 4.668572 3.066667 9.90554 -8.718409 0.9351064 19.72814 7.586102 3.897168 -26.61652 9.208798 5.682129 -18.54436 11.55035 88.81479 36.09169 -23.59202 -0 0 12.83526 -6.527299 9.306693 4.128177 6.938673 -22.43261 -1.838605 -91.77607 25.69865 20.66269 0 0 -24.02443 8.97291 12.90958 5.427738
2.298835 98.38543 27.60867 -2.071442 4.517697 2.975554 8.093217 -35.43276 4.469136 -0 12.84206 -0 -7.441913 -0.3518687 -0.5094176 -5.032135 15.21989 -14.98523 -0 16.75403 -0 0.5202188 -20.4125 15.23297 -1.105873 -1.846343 4.596793 3.058381 9.954212 -8.791877 0.8263913 19.68042 7.644893 3.964164 -26.41871 8.999308 5.680736 -18.31693 11.59763 89.0327 36.07049 -23.8389 -0 0 12.4522 -7.027191 9.648268 4.402354 6.903357 -22.60723 -1.89981 -91.4953 25.69933 20.35841 0 0 -24.36576 8.473196 12.62341 5.969226
2.562078 98.24462 33.43698 -2.844758 4.272491 3.533772 9.155287 -33.81878 4.814211 -0 14.15588 -0 -8.190931 0.04598853 -0.3600009 -4.273786 14.76132 -13.78734 -0 23.48314 -0 -1.644029 -17.09259 13.03277 -0.9881879 -1.669381 4.532152 3.032475 10.02283 -8.840132 0.7101998 19.68292 7.674282 4.011025 -26.13585 8.745606 5.699764 -18.07366 11.65901 89.15758 36.00037 -23.9534 -0 0 12.10518 -7.695912 10.03957 4.762956 6.819006 -22.74346 -1.942987 -91.26664 25.67279 20.10321 0 0 -24.40732 7.867964 12.38817 6.555079
2.86415 98.61771 39.65 -3.482709 3.661406 3.819148 9.901249 -30.14306 5.182658 -0 16.04485 -0 -8.819747 -1.051835 -0.5862325 -3.508418 13.05165 -12.53738 -0 32.25241 -0 -4.234921 -12.94537 10.90891 -0.8989444 -1.490623 4.489811 2.980789 10.10752 -8.847488 0.5880501 19.74431 7.668097 4.032982 -25.76155 8.446053 5.729785 -17.83647 11.73351 89.1525 35.89641 -23.8759 -0 0 11.83133 -8.560676 10.46743 5.235947 6.674018 -22.81914 -1.965478 -91.10108 25.62619 19.93219 0 0 -24.12654 7.149408 12.19578 7.195447
3.2046 99.52386 45.99206 -3.627066 2.692113 3.696145 9.842314 -24.5161 5.233065 -0 17.14808 -0 -9.091908 -3.342134 -1.13885 -2.983994 9.712252 -11.2622 -0 42.58429 -0 -6.670325 -8.797504 9.341085 -0.8554983 -1.316657 4.490593 2.893889 10.19915 -8.79405 0.4648566 19.86945 7.621671 4.025371 -25.29932 8.107802 5.753448 -17.6425 11.81716 88.97525 35.78697 -23.53604 -0 0 11.68276 -9.640272 10.90693 5.846978 6.46079 -22.80694 -1.965557 -91.00456 25.56656 19.88575 0 0 -23.53216 6.331426 12.02945 7.886002
3.551462 100.8551 52.21902 -3.007733 1.308756 3.181382 8.816802 -17.73464 4.803439 -0 16.48424 -0 -8.968773 -5.698377 -1.68119 -2.8619 4.787098 -10.04079 -0 52.92906 -0 -8.048212 -5.757856 8.869919 -0.8767607 -1.157503 4.557879 2.762925 10.28448 -8.659268 0.3481402 20.05674 7.534023 3.985093 -24.76342 7.746574 5.747544 -17.53799 11.90363 88.58621 35.70816 -22.86561 -0 0 11.71623 -10.94235 11.32676 6.61648 6.178005 -22.67995 -1.943265 -90.97446 25.4976 20.00102 0 0 -22.67107 5.449371 11.86266 8.608121
3.854483 102.3639 58.16928 -1.742165 -0.5249612 2.481566 7.218481 -10.96357 4.049225 -0 14.30223 -0 -8.636924 -7.057097 -1.832082 -2.988664 -1.175037 -8.9362 -0 60.59991 -0 -7.796296 -4.486202 9.731127 -0.9773871 -1.022099 4.714124 2.580242 10.35099 -8.42627 0.2464084 20.29617 7.409674 3.912635 -24.17321 7.38262 5.687638 -17.56852 11.98599 87.95761 35.69369 -21.81326 -0 0 11.98005 -12.47189 11.70346 7.557683 5.831297 -22.4194 -1.902655 -90.99682 25.41554 20.3025 0 0 -21.62659 4.549433 11.65821 9.339774
4.08637 103.7008 63.79725 -0.3507274 -2.576724 1.843947 5.751724 -4.928683 3.358912 -0 11.71582 -0 -8.166909 -7.527174 -1.59212 -2.870814 -7.404077 -7.829026 -0 62.96242 -0 -6.422639 -4.610618 11.56974 -1.163189 -0.9149788 4.979692 2.337555 10.39246 -8.084046 0.1687604 20.56991 7.259876 3.813836 -23.54518 7.037815 5.554266 -17.77243 12.05812 87.07878 35.76568 -20.35474 -0 0 12.50963 -14.24313 12.03762 8.674379 5.432324 -22.01968 -1.854913 -91.0523 25.31315 20.80418 0 0 -20.50747 3.669941 11.37351 10.07849
4.270184 104.5365 69.17145 0.6049048 -4.366422 1.336126 4.947309 0.3847661 3.077654 -0 9.59988 -0 -7.379183 -8.167856 -1.344245 -2.007283 -13.25619 -6.447177 -0 59.19402 -0 -5.059691 -5.178749 13.70946 -1.430028 -0.8366532 5.372076 2.026124 10.41067 -7.626613 0.1260138 20.85635 7.101529 3.698262 -22.89103 6.737581 5.338967 -18.17632 12.11509 85.95119 35.92294 -18.49126 -0 0 13.3302 -16.2759 12.35638 9.954566 4.996658 -21.48491 -1.816022 -91.13106 25.18056 21.51888 0 0 -19.4121 2.836739 10.97504 10.84123
4.466116 104.6917 74.41498 0.8652505 -5.462696 0.8542126 4.851623 5.134077 3.122989 -0 8.190248 -0 -6.37675 -9.855839 -1.258276 -0.3547256 -18.38611 -4.74868 -0 50.61958 -0 -4.258937 -5.568517 15.63638 -1.763524 -0.7888236 5.900628 1.643478 10.4096 -7.053039 0.1297419 21.13511 6.951848 3.574241 -22.22907 6.512217 5.046624 -18.78615 12.15239 84.58206 36.1207 -16.24689 -0 0 14.45603 -18.55147 12.68133 11.35578 4.544434 -20.82136 -1.794727 -91.25149 24.99932 22.46327 0 0 -18.37329 2.080062 10.45844 11.62251
4.741538 104.1904 79.65639 0.5463262 -5.609834 0.3154345 5.095916 9.179371 3.121968 -0 7.425371 -0 -5.54068 -12.6001 -1.032263 1.598706 -22.67031 -3.066901 -0 39.65664 -0 -3.834832 -5.643887 17.02246 -2.132685 -0.7766742 6.550508 1.205794 10.38968 -6.381143 0.1846738 21.3843 6.823208 3.448749 -21.59952 6.385625 4.694751 -19.56784 12.16613 83.01783 36.26168 -13.716 -0 0 15.86084 -20.94152 12.98654 12.78421 4.10845 -20.04986 -1.785044 -91.45338 24.74596 23.62982 0 0 -17.36587 1.446391 9.852982 12.36041
